<svg xmlns="http://www.w3.org/2000/svg" width="8.605" height="12.689" overflow="visible">
  <path fill="#D6D6D6" d="M.29 2.277c1.361.537 2.593 1.202 3.822 1.871C2.966 4.9 1.76 5.592.29 6.019a36.775 36.775 0 0 0 0-3.742z"/>
  <path fill="#494949" d="M6.471 7.402c.65-.225 1.301-.857 1.951-.813v3.823c-1.319-.309-2.709-1.246-3.984-1.871.472-.478 1.318-.58 1.789-1.058.13.022.14-.077.244-.081z"/>
  <path fill="#D6D6D6" d="M8.504 6.588c.135 1.085.135 2.738 0 3.823V6.588zM1.672 1.22C2.36.714 3.208.37 4.031 0c-.732.461-1.582.804-2.359 1.22zM.453 6.588c-.844-.755-.21-2.989-.407-4.393.164-.188.296-.408.569-.487-.129.196-.381.27-.488.488.169 1.376-.367 3.458.325 4.311v.081zm.569.245c.723.671 2.642.869 3.09 1.626.045.076-.043.16-.082.164-.716-.884-2.156-1.042-3.008-1.79zM.453 10.9c-.106-.029-.128-.144-.244-.163.827-.962 2.321-1.258 3.416-1.952-.979.756-2.4 1.069-3.334 1.871.028.106.142.127.162.244zm1.219.568c.777.416 1.627.76 2.358 1.221-.822-.37-1.67-.715-2.358-1.221zm5.531-.081c.015-.065.081-.081.08-.163.31-.124.541-.326.895-.406-.219.295-.666.364-.975.569zm.651-5.449c.204.147.556.147.568.488-.178-.093-.27-.272-.487-.326-.016-.065-.081-.081-.081-.162zM6.145 3.253c-.434.406-1.101.58-1.626.895.15.311.662.26.813.57-.066-.016-.081-.082-.163-.082-.25-.021-.365-.176-.569-.244-.161-.189-.161-.218 0-.407.417-.18.757-.435 1.22-.569.12-.042.205-.12.325-.163zM8.26 1.952c.191.022.05.36-.082.326.063-.073.088-.184.082-.326zm-1.057-.651c.309.206.756.274.975.569-.354-.078-.585-.281-.895-.406-.014-.066-.081-.081-.08-.163z"/>
  <path fill="#ADADAD" d="M4.031 0c1.372.12 2.021.961 3.172 1.301-.001.082.065.097.08.163C6.29 1.021 5.439.434 4.356.081c-.19 4.013-.027 8.377-.082 12.526 1.164-.3 1.981-.947 3.008-1.383.001.082-.065.098-.08.163-1.151.341-1.801 1.182-3.172 1.302-.731-.461-1.582-.805-2.358-1.221-.417-.18-.758-.435-1.22-.568-.02-.117-.134-.138-.163-.244.934-.802 2.356-1.115 3.334-1.871.202.013.251-.128.406-.162.038-.004.126-.088.082-.164-.449-.757-2.368-.955-3.09-1.626-.203-.068-.318-.224-.568-.245v-.081C-.239 5.654.297 3.572.128 2.196c.107-.218.358-.292.488-.488.407-.107.694-.335 1.056-.488C2.449.804 3.299.461 4.031 0zM.29 6.019C1.76 5.592 2.966 4.9 4.112 4.148 2.883 3.479 1.651 2.814.29 2.277a36.775 36.775 0 0 1 0 3.742z"/>
  <path fill="#ADADAD" d="M8.178 1.871c.07-.015.077.032.082.081.006.142-.019.253-.082.326-.731.271-1.346.66-2.033.976-.12.042-.205.12-.325.162.688-.505 1.535-.85 2.357-1.22v-.325zM4.6 4.392c-.107-.029-.128-.143-.244-.163a.414.414 0 0 1 .244-.244c-.161.189-.161.218 0 .407zm.569.244c.082 0 .097.066.163.082.85.397 1.627.868 2.521 1.22 0 .082.065.097.081.163-.903-.506-1.952-.869-2.765-1.465z"/>
  <path fill="#858585" d="M7.283 11.224c-1.027.436-1.845 1.083-3.008 1.383.054-4.149-.108-8.513.081-12.526 1.083.353 1.934.94 2.927 1.383.31.125.541.328.895.407v.325c-.822.37-1.67.715-2.357 1.22-.464.134-.804.39-1.221.569a.414.414 0 0 0-.244.244c.116.02.137.134.244.163.204.068.319.223.569.244.813.596 1.862.959 2.766 1.464.218.054.31.233.487.326.016.066.082.081.082.163v3.823c-.082.162-.141.348-.326.406-.354.08-.585.282-.895.406zm1.139-4.636c-.526-.229-1.426.507-1.951.814-.104.004-.114.103-.244.081-.59.413-1.501.505-1.87 1.14 1.339.639 2.601 1.357 3.984 1.951 0-.081.065-.097.081-.162V6.588z"/>
  <path fill="#666" d="M6.471 7.402c.525-.307 1.426-1.042 1.951-.813-.651-.045-1.301.588-1.951.813zm1.951 3.01c-.016.065-.081.081-.081.162-1.384-.594-2.646-1.313-3.985-1.951.369-.635 1.28-.727 1.87-1.14-.47.477-1.317.58-1.788 1.058 1.275.625 2.665 1.562 3.984 1.871z"/>
</svg>
